<svg xmlns="http://www.w3.org/2000/svg" width="1400" height="260" viewBox="0 0 1400 260" role="img" aria-labelledby="title"><title id="title">Clone, configure secrets, fetch and verify model, start Docker</title>
<rect width="1400" height="260" rx="18" fill="#090f1b"/><g font-family="Arial,sans-serif"><text x="40" y="42" fill="#72dce7" font-size="14" letter-spacing="3">FROM REPOSITORY TO WORKSPACE</text>
<g fill="#101c2c" stroke="#264153"><rect x="40" y="65" width="300" height="155" rx="12"/><rect x="380" y="65" width="300" height="155" rx="12"/><rect x="720" y="65" width="300" height="155" rx="12"/><rect x="1060" y="65" width="300" height="155" rx="12"/></g>
<g fill="#64d9e8" font-size="14"><text x="62" y="97">01 / SOURCE</text><text x="402" y="97">02 / CONFIGURATION</text><text x="742" y="97">03 / LOCAL AI</text><text x="1082" y="97">04 / RUN</text></g>
<g fill="#f0f6fc" font-size="24" font-weight="700"><text x="62" y="139">Clone the project</text><text x="402" y="139">Prepare secrets</text><text x="742" y="139">Fetch the model</text><text x="1082" y="139">Start the stack</text></g>
<g fill="#a9bbcd" font-size="16"><text x="62" y="175">GitHub → local workspace</text><text x="402" y="175">setup_local.py</text><text x="742" y="175">Download · join · SHA-256</text><text x="1082" y="175">Docker Compose</text><text x="1082" y="201">Open localhost:8080</text></g>
<g stroke="#64d9e8" stroke-width="2" fill="none"><path d="M348 145h22m-7-7 7 7-7 7"/><path d="M688 145h22m-7-7 7 7-7 7"/><path d="M1028 145h22m-7-7 7 7-7 7"/></g></g></svg>
